<svg id="Capa_1" enable-background="new 0 0 512 512" height="512" viewBox="0 0 512 512" width="512" xmlns="http://www.w3.org/2000/svg"><g><path d="m42.712 279.815h158.098v80.983h-158.098z" fill="#c3d5ef"/><path d="m131.55 320.306c0 14.322 2.798 27.988 7.866 40.492h61.393v-80.983h-61.394c-5.067 12.503-7.865 26.17-7.865 40.491z" fill="#b7c8ea"/><path d="m311.19 279.815h158.098v80.983h-158.098z" fill="#c3d5ef" transform="matrix(-1 0 0 -1 780.477 640.613)"/><path d="m451.682 279.815h17.606v80.983h-17.606z" fill="#b7c8ea"/><path d="m13.934 377.639h22.343c3.554 0 6.434-2.881 6.434-6.434v-101.797c0-3.554-2.881-6.434-6.434-6.434h-22.343c-3.554 0-6.434 2.881-6.434 6.434v101.798c0 3.553 2.881 6.433 6.434 6.433z" fill="#365e7d"/><path d="m36.277 262.973h-15.606c3.554 0 6.434 2.881 6.434 6.435v101.797c0 3.554-2.881 6.435-6.434 6.435h15.606c3.554 0 6.434-2.881 6.434-6.435v-101.797c.001-3.554-2.88-6.435-6.434-6.435z" fill="#2b4d66"/><path d="m498.065 377.639h-22.343c-3.554 0-6.434-2.881-6.434-6.434v-101.797c0-3.554 2.881-6.434 6.434-6.434h22.343c3.554 0 6.434 2.881 6.434 6.434v101.798c.001 3.553-2.88 6.433-6.434 6.433z" fill="#365e7d"/><path d="m498.065 262.973h-17.606c3.554 0 6.434 2.881 6.434 6.435v101.797c0 3.554-2.881 6.435-6.434 6.435h17.606c3.554 0 6.434-2.881 6.434-6.435v-101.797c.001-3.554-2.88-6.435-6.434-6.435z" fill="#2b4d66"/><path d="m296.491 313.511v-148.386c0-5.364-4.349-9.713-9.713-9.713h-61.557c-5.364 0-9.713 4.349-9.713 9.713v148.385h80.983z" fill="#c3d5ef"/><path d="m286.779 155.413h-17.588c5.364 0 9.713 4.349 9.713 9.713v148.385h17.588v-148.385c-.001-5.365-4.349-9.713-9.713-9.713z" fill="#b7c8ea"/><circle cx="256" cy="320.306" fill="#df6b57" r="107.861"/><path d="m256 212.445c-3.65 0-7.258.184-10.815.538 54.492 5.425 97.047 51.404 97.047 107.323s-42.555 101.898-97.047 107.323c3.557.354 7.164.538 10.815.538 59.57 0 107.861-48.291 107.861-107.862 0-59.569-48.291-107.86-107.861-107.86z" fill="#dd544f"/><path d="m313.157 111.859h-114.314c-4.748 0-8.598-3.849-8.598-8.598v-10.832c0-4.748 3.849-8.598 8.598-8.598h114.314c4.748 0 8.598 3.849 8.598 8.598v10.833c0 4.748-3.85 8.597-8.598 8.597z" fill="#df6b57"/><path d="m313.157 83.831h-19.629c4.748 0 8.598 3.849 8.598 8.598v10.833c0 4.749-3.849 8.598-8.598 8.598h19.629c4.748 0 8.598-3.849 8.598-8.598v-10.833c0-4.749-3.85-8.598-8.598-8.598z" fill="#dd544f"/><path d="m240.412 111.859h31.176v43.553h-31.176z" fill="#365e7d"/><path d="m240.412 111.859h31.176v15.014h-31.176z" fill="#2b4d66"/><g><path d="m217.65 281.956c-21.135 21.135-21.129 55.57 0 76.701 21.28 21.278 55.68 21.018 76.7 0v-.001c21.146-21.146 21.146-55.554 0-76.7-21.145-21.146-55.554-21.145-76.7 0zm38.35-.866c7.664 0 15.325 2.233 21.925 6.684l-24.806 24.806-34.975-2.511c1.723-6.416 5.087-12.48 10.113-17.506 7.649-7.65 17.695-11.473 27.743-11.473zm-38.922 43.941 31.907 2.292 2.291 31.907c-8.419-1.013-16.571-4.732-23.019-11.178-6.448-6.449-10.167-14.602-11.179-23.021zm66.665 23.019c-5.025 5.026-11.089 8.39-17.505 10.114l-2.511-34.976 24.806-24.806c10.285 15.25 8.694 36.184-4.79 49.668z"/><path d="m504.5 296.29c4.143 0 7.5-3.357 7.5-7.5v-19.382c0-7.684-6.251-13.935-13.935-13.935h-22.343c-7.684 0-13.935 6.251-13.935 13.935v2.906h-49.522c-1.293-2.258-3.72-3.782-6.508-3.782s-5.216 1.524-6.508 3.782h-38.357c-11.529-25.097-31.804-45.372-56.901-56.901v-50.288c0-9.491-7.722-17.213-17.213-17.213h-7.69v-28.554h34.068c8.876 0 16.098-7.222 16.098-16.098v-10.831c0-8.876-7.222-16.098-16.098-16.098h-67.662c-4.142 0-7.5 3.357-7.5 7.5s3.358 7.5 7.5 7.5h67.662c.605 0 1.098.492 1.098 1.098v10.832c0 .605-.492 1.098-1.098 1.098-37.683 0-80.427 0-114.314 0-.605 0-1.098-.492-1.098-1.098v-10.832c0-.605.492-1.098 1.098-1.098h16.666c4.142 0 7.5-3.357 7.5-7.5s-3.358-7.5-7.5-7.5h-16.666c-8.876 0-16.098 7.222-16.098 16.098v10.832c0 8.876 7.221 16.098 16.098 16.098h34.069v28.554h-7.69c-9.491 0-17.213 7.722-17.213 17.213v50.288c-25.097 11.528-45.373 31.804-56.901 56.901h-38.357c-1.293-2.258-3.72-3.782-6.508-3.782s-5.215 1.524-6.508 3.782h-49.522v-2.906c0-7.684-6.251-13.935-13.935-13.935h-22.343c-7.683-.001-13.934 6.25-13.934 13.934v101.797c0 7.684 6.251 13.935 13.934 13.935h22.343c7.684 0 13.935-6.251 13.935-13.935v-2.907h9.271c4.142 0 7.5-3.357 7.5-7.5s-3.358-7.5-7.5-7.5h-9.271v-65.983h48.53v65.983h-9.271c-4.142 0-7.5 3.357-7.5 7.5s3.358 7.5 7.5 7.5h10.263c1.293 2.258 3.72 3.782 6.508 3.782s5.215-1.524 6.508-3.782h38.356c18.245 39.719 58.399 67.37 104.894 67.37 46.494 0 86.648-27.651 104.893-67.37h38.356c1.293 2.258 3.72 3.782 6.508 3.782s5.216-1.524 6.508-3.782h49.522v2.907c0 7.684 6.251 13.935 13.935 13.935h22.343c7.684 0 13.935-6.251 13.935-13.935v-52.429c0-4.143-3.357-7.5-7.5-7.5s-7.5 3.357-7.5 7.5v51.363h-20.212c0-12.474 0-87.11 0-99.666h20.212v18.316c0 4.143 3.357 7.501 7.5 7.501zm-469.288 73.849h-20.212v-99.666h20.212zm212.7-250.78h16.177v28.554h-16.177zm-24.904 45.767c0-1.22.993-2.213 2.213-2.213h61.558c1.22 0 2.213.993 2.213 2.213v44.634c-10.458-3.127-21.531-4.815-32.992-4.815s-22.534 1.688-32.992 4.815zm-109.266 188.172v-65.983h31.711c-3.127 10.458-4.815 21.531-4.815 32.992s1.688 22.533 4.815 32.991zm142.258 67.37c-55.34 0-100.362-45.021-100.362-100.361s45.022-100.362 100.362-100.362c55.339 0 100.361 45.021 100.361 100.361s-45.022 100.362-100.361 100.362zm110.546-133.354h31.712v65.983h-31.711c3.127-10.458 4.815-21.53 4.815-32.991-.001-11.461-1.689-22.534-4.816-32.992zm46.711 65.984v-65.983h48.53v65.983z"/><path d="m256 249.698c4.142 0 7.5-3.357 7.5-7.5v-2.736c0-4.143-3.358-7.5-7.5-7.5s-7.5 3.357-7.5 7.5v2.736c0 4.143 3.358 7.5 7.5 7.5z"/><path d="m336.844 312.806h-2.736c-4.143 0-7.5 3.357-7.5 7.5s3.357 7.5 7.5 7.5h2.736c4.143 0 7.5-3.357 7.5-7.5s-3.357-7.5-7.5-7.5z"/><path d="m256 390.914c-4.142 0-7.5 3.357-7.5 7.5v2.737c0 4.143 3.358 7.5 7.5 7.5s7.5-3.357 7.5-7.5v-2.737c0-4.143-3.358-7.5-7.5-7.5z"/><path d="m177.892 312.806h-2.736c-4.142 0-7.5 3.357-7.5 7.5s3.358 7.5 7.5 7.5h2.736c4.142 0 7.5-3.357 7.5-7.5s-3.358-7.5-7.5-7.5z"/></g></g></svg>